<svg width="98" height="98" viewBox="0 0 98 98" fill="none" xmlns="https://www.w3.org/2000/svg">
<g clip-path="url(#clip0)">
<path d="M42.72 65.596H34.709V2C34.709 0.895 33.813 0 32.709 0H16.579C15.475 0 14.579 0.895 14.579 2V65.596H6.56803C5.79803 65.596 5.09603 66.039 4.76403 66.733C4.43203 67.428 4.52803 68.25 5.01003 68.85L23.086 95.805C23.466 96.278 24.039 96.551 24.644 96.551C25.249 96.551 25.822 96.278 26.202 95.805L44.278 68.85C44.76 68.25 44.856 67.428 44.524 66.733C44.192 66.039 43.49 65.596 42.72 65.596Z" fill="black"/>
<path d="M92.9981 39.315L79.6681 1.54103C79.3861 0.742031 78.6301 0.207031 77.7821 0.207031H73.9211C73.8151 0.207031 73.7081 0.215031 73.6041 0.232031C73.5001 0.214031 73.3941 0.207031 73.2861 0.207031H69.5261C68.6761 0.207031 67.9211 0.742031 67.6381 1.54303L54.3621 39.317C54.1471 39.928 54.2421 40.606 54.6171 41.135C54.9921 41.664 55.5991 41.979 56.2491 41.979H62.0231C62.9031 41.979 63.6791 41.405 63.9361 40.563L66.4711 32.239H80.8901L83.4261 40.563C83.6821 41.405 84.4591 41.979 85.3391 41.979H91.1101C91.7581 41.979 92.3681 41.665 92.7431 41.135C93.1191 40.604 93.2131 39.926 92.9981 39.315ZM68.8641 24.283C71.2611 16.513 72.8841 11.117 73.6841 8.24203L78.6121 24.283H68.8641Z" fill="black"/>
<path d="M87.2551 89.8382H69.4381L88.3661 62.6332C88.5981 62.2972 88.7231 61.8992 88.7231 61.4902V58.0742C88.7231 56.9702 87.8271 56.0742 86.7231 56.0742H60.6531C59.5491 56.0742 58.6531 56.9702 58.6531 58.0742V61.9182C58.6531 63.0232 59.5491 63.9182 60.6531 63.9182H77.4351L58.4811 91.0942C58.2471 91.4302 58.1221 91.8282 58.1221 92.2392V95.6802C58.1221 96.7852 59.0181 97.6802 60.1221 97.6802H87.2571C88.3611 97.6802 89.2571 96.7852 89.2571 95.6802V91.8382C89.2551 90.7322 88.3611 89.8382 87.2551 89.8382Z" fill="black"/>
</g>
<defs>
<clipPath id="clip0">
<rect width="97.68" height="97.68" fill="white"/>
</clipPath>
</defs>
</svg>
