<svg width="98" height="98" viewBox="0 0 98 98" fill="none" xmlns="http://www.w3.org/2000/svg">
<g clip-path="url(#clip0)">
<path d="M42.72 65.596H34.709V2C34.709 0.895 33.813 0 32.709 0H16.579C15.475 0 14.579 0.895 14.579 2V65.596H6.56803C5.79803 65.596 5.09603 66.039 4.76403 66.733C4.43203 67.428 4.52803 68.25 5.01003 68.85L23.086 95.805C23.466 96.278 24.039 96.551 24.644 96.551C25.249 96.551 25.822 96.278 26.202 95.805L44.278 68.85C44.76 68.25 44.856 67.428 44.524 66.733C44.192 66.039 43.49 65.596 42.72 65.596Z" fill="black"/>
<path d="M93.7491 95.108L80.4191 57.334C80.1371 56.535 79.3811 56 78.5331 56H74.6721C74.5661 56 74.4591 56.008 74.3551 56.025C74.2511 56.007 74.1451 56 74.0371 56H70.2771C69.4271 56 68.6721 56.535 68.3891 57.336L55.1131 95.11C54.8981 95.721 54.9931 96.399 55.3681 96.928C55.7431 97.457 56.3501 97.772 57.0001 97.772H62.7741C63.6541 97.772 64.4301 97.198 64.6871 96.356L67.2221 88.032H81.6411L84.1771 96.356C84.4331 97.198 85.2101 97.772 86.0901 97.772H91.8611C92.5091 97.772 93.1191 97.458 93.4941 96.928C93.8701 96.397 93.9641 95.719 93.7491 95.108ZM69.6151 80.076C72.0121 72.306 73.6351 66.91 74.4351 64.035L79.3631 80.076H69.6151Z" fill="black"/>
<path d="M87.133 33.764H69.316L88.244 6.559C88.476 6.223 88.601 5.825 88.601 5.416V2C88.601 0.896 87.705 0 86.601 0H60.531C59.427 0 58.531 0.896 58.531 2V5.844C58.531 6.949 59.427 7.844 60.531 7.844H77.313L58.359 35.02C58.125 35.356 58 35.754 58 36.165V39.606C58 40.711 58.896 41.606 60 41.606H87.135C88.239 41.606 89.135 40.711 89.135 39.606V35.764C89.133 34.658 88.239 33.764 87.133 33.764Z" fill="black"/>
</g>
<defs>
<clipPath id="clip0">
<rect width="97.68" height="97.68" fill="white"/>
</clipPath>
</defs>
</svg>
