<svg width="15" height="15" viewBox="0 0 15 15" fill="none" xmlns="http://www.w3.org/2000/svg">
<path d="M3.75001 0H0.535724C0.239847 0 0 0.239847 0 0.535724V3.75001C0 4.04589 0.239847 4.28573 0.535724 4.28573H3.75001C4.04589 4.28573 4.28573 4.04589 4.28573 3.75001V0.535724C4.2857 0.239847 4.04585 0 3.75001 0Z" fill="black"/>
<path d="M9.10708 0H5.89278C5.5969 0 5.35706 0.239847 5.35706 0.535724V3.75001C5.35706 4.04589 5.5969 4.28573 5.89278 4.28573H9.10708C9.40295 4.28573 9.6428 4.04589 9.6428 3.75001V0.535724C9.6428 0.239847 9.40295 0 9.10708 0Z" fill="black"/>
<path d="M14.4642 0H11.25C10.9541 0 10.7142 0.239847 10.7142 0.535724V3.75001C10.7142 4.04589 10.9541 4.28573 11.25 4.28573H14.4642C14.7601 4.28573 15 4.04589 15 3.75001V0.535724C15 0.239847 14.7601 0 14.4642 0Z" fill="black"/>
<path d="M3.75001 5.35718H0.535724C0.239847 5.35718 0 5.59703 0 5.89287V9.10717C0 9.40305 0.239847 9.64289 0.535724 9.64289H3.75001C4.04589 9.64289 4.28573 9.40305 4.28573 9.10717V5.89287C4.2857 5.59703 4.04585 5.35718 3.75001 5.35718Z" fill="black"/>
<path d="M9.10708 5.35718H5.89278C5.5969 5.35718 5.35706 5.59702 5.35706 5.8929V9.10717C5.35706 9.40305 5.5969 9.64289 5.89278 9.64289H9.10708C9.40295 9.64289 9.6428 9.40305 9.6428 9.10717V5.8929C9.6428 5.59702 9.40295 5.35718 9.10708 5.35718Z" fill="black"/>
<path d="M14.4642 5.35718H11.25C10.9541 5.35718 10.7142 5.59702 10.7142 5.8929V9.10717C10.7142 9.40305 10.9541 9.64289 11.25 9.64289H14.4642C14.7601 9.64289 15 9.40305 15 9.10717V5.8929C15 5.59702 14.7601 5.35718 14.4642 5.35718Z" fill="black"/>
<path d="M3.75001 10.7144H0.535724C0.239847 10.7144 0 10.9542 0 11.2501V14.4644C0 14.7603 0.239847 15.0001 0.535724 15.0001H3.75001C4.04589 15.0001 4.28573 14.7603 4.28573 14.4644V11.2501C4.2857 10.9542 4.04585 10.7144 3.75001 10.7144Z" fill="black"/>
<path d="M9.10708 10.7144H5.89278C5.5969 10.7144 5.35706 10.9542 5.35706 11.2501V14.4644C5.35706 14.7603 5.5969 15.0001 5.89278 15.0001H9.10708C9.40295 15.0001 9.6428 14.7603 9.6428 14.4644V11.2501C9.6428 10.9542 9.40295 10.7144 9.10708 10.7144Z" fill="black"/>
<path d="M14.4642 10.7144H11.25C10.9541 10.7144 10.7142 10.9542 10.7142 11.2501V14.4644C10.7142 14.7603 10.9541 15.0001 11.25 15.0001H14.4642C14.7601 15.0001 15 14.7603 15 14.4644V11.2501C15 10.9542 14.7601 10.7144 14.4642 10.7144Z" fill="black"/>
</svg>
