<svg width="512" height="512" viewBox="0 0 512 512" fill="none" xmlns="https://www.w3.org/2000/svg">
<rect width="512" height="512" rx="256" fill="#FF9D33"/>
<path d="M370.655 141.345V243.931L256 358.586H93.069C86.4117 358.566 81.0199 353.174 81 346.517V141.345H370.655Z" fill="#ECF0F1"/>
<path d="M141.345 189.621H111.172C107.84 189.621 105.138 192.322 105.138 195.655V213.759C105.138 217.091 107.84 219.793 111.172 219.793H141.345C144.678 219.793 147.379 217.091 147.379 213.759V195.655C147.379 192.322 144.678 189.621 141.345 189.621Z" fill="#95A5A5"/>
<path d="M207.724 189.621H177.552C174.219 189.621 171.517 192.322 171.517 195.655V213.759C171.517 217.091 174.219 219.793 177.552 219.793H207.724C211.057 219.793 213.759 217.091 213.759 213.759V195.655C213.759 192.322 211.057 189.621 207.724 189.621Z" fill="#95A5A5"/>
<path d="M274.103 189.621H243.931C240.598 189.621 237.897 192.322 237.897 195.655V213.759C237.897 217.091 240.598 219.793 243.931 219.793H274.103C277.436 219.793 280.138 217.091 280.138 213.759V195.655C280.138 192.322 277.436 189.621 274.103 189.621Z" fill="#95A5A5"/>
<path d="M274.103 243.931H243.931C240.598 243.931 237.897 246.633 237.897 249.965V268.069C237.897 271.402 240.598 274.103 243.931 274.103H274.103C277.436 274.103 280.138 271.402 280.138 268.069V249.965C280.138 246.633 277.436 243.931 274.103 243.931Z" fill="#95A5A5"/>
<path d="M340.483 189.621H310.31C306.978 189.621 304.276 192.322 304.276 195.655V213.759C304.276 217.091 306.978 219.793 310.31 219.793H340.483C343.816 219.793 346.517 217.091 346.517 213.759V195.655C346.517 192.322 343.816 189.621 340.483 189.621Z" fill="#95A5A5"/>
<path d="M271.267 328.414H243.931C240.598 328.414 237.897 325.712 237.897 322.379V304.276C237.897 300.943 240.598 298.241 243.931 298.241H274.103C277.436 298.241 280.138 300.943 280.138 304.276V319.543L271.267 328.414Z" fill="#95A5A5"/>
<path d="M325.578 274.103H310.31C306.978 274.103 304.276 271.402 304.276 268.069V249.965C304.276 246.633 306.978 243.931 310.31 243.931H340.483C343.816 243.931 346.517 246.633 346.517 249.965V253.164L325.578 274.103Z" fill="#95A5A5"/>
<path d="M141.345 243.931H111.172C107.84 243.931 105.138 246.633 105.138 249.965V268.069C105.138 271.402 107.84 274.103 111.172 274.103H141.345C144.678 274.103 147.379 271.402 147.379 268.069V249.965C147.379 246.633 144.678 243.931 141.345 243.931Z" fill="#95A5A5"/>
<path d="M207.724 243.931H177.552C174.219 243.931 171.517 246.633 171.517 249.965V268.069C171.517 271.402 174.219 274.103 177.552 274.103H207.724C211.057 274.103 213.759 271.402 213.759 268.069V249.965C213.759 246.633 211.057 243.931 207.724 243.931Z" fill="#95A5A5"/>
<path d="M141.345 298.241H111.172C107.84 298.241 105.138 300.943 105.138 304.276V322.379C105.138 325.712 107.84 328.414 111.172 328.414H141.345C144.678 328.414 147.379 325.712 147.379 322.379V304.276C147.379 300.943 144.678 298.241 141.345 298.241Z" fill="#95A5A5"/>
<path d="M207.724 298.241H177.552C174.219 298.241 171.517 300.943 171.517 304.276V322.379C171.517 325.712 174.219 328.414 177.552 328.414H207.724C211.057 328.414 213.759 325.712 213.759 322.379V304.276C213.759 300.943 211.057 298.241 207.724 298.241Z" fill="#95A5A5"/>
<path d="M368.64 231.023L382.169 217.494C387.15 212.515 395.225 212.515 400.206 217.494L427.265 244.535C432.244 249.516 432.244 257.59 427.265 262.572L413.735 276.101L376.69 268.069L368.64 231.023Z" fill="#FF5364"/>
<path d="M233.341 366.316L214.03 424.079C213.403 425.964 213.895 428.042 215.3 429.447C216.705 430.852 218.783 431.343 220.668 430.716L278.43 411.406L268.069 376.69L233.341 366.316Z" fill="#FDD7AD"/>
<path d="M251.353 420.44L220.698 430.698C218.812 431.335 216.727 430.847 215.319 429.439C213.912 428.031 213.424 425.947 214.06 424.06L224.319 393.405L251.353 420.44Z" fill="#3F5C6C"/>
<path d="M255.838 388.87L391.112 253.595L413.677 276.16L278.403 411.435L255.838 388.87Z" fill="#3B97D3"/>
<path d="M391.172 253.586L255.879 388.879L233.371 366.31L368.603 231.078L391.172 253.586Z" fill="#2980BA"/>
<path d="M370.655 111.172V153.414H81V111.172C81.0199 104.515 86.4117 99.1234 93.069 99.1035H358.586C365.243 99.1234 370.635 104.515 370.655 111.172Z" fill="#E64C3C"/>
<path d="M129.276 93.069C129.276 86.4035 123.872 81 117.207 81C110.541 81 105.138 86.4035 105.138 93.069V117.207C105.138 123.872 110.541 129.276 117.207 129.276C123.872 129.276 129.276 123.872 129.276 117.207V93.069Z" fill="#95A5A5"/>
<path d="M346.517 93.069C346.517 86.4035 341.114 81 334.448 81C327.783 81 322.379 86.4035 322.379 93.069V117.207C322.379 123.872 327.783 129.276 334.448 129.276C341.114 129.276 346.517 123.872 346.517 117.207V93.069Z" fill="#95A5A5"/>
</svg>
