<svg width="10" height="10" viewBox="0 0 10 10" fill="none" xmlns="https://www.w3.org/2000/svg">
<g clip-path="url(#clip0)">
<path d="M5.73294 5.00656L8.84799 1.89143C9.05071 1.68881 9.05071 1.36119 8.84799 1.15856C8.64536 0.955935 8.31774 0.955935 8.11511 1.15856L4.99997 4.27369L1.88492 1.15856C1.68219 0.955935 1.35467 0.955935 1.15204 1.15856C0.949319 1.36119 0.949319 1.68881 1.15204 1.89143L4.26709 5.00656L1.15204 8.12169C0.949319 8.32431 0.949319 8.65193 1.15204 8.85456C1.25302 8.95563 1.3858 9.00641 1.51848 9.00641C1.65116 9.00641 1.78384 8.95563 1.88492 8.85456L4.99997 5.73943L8.11511 8.85456C8.21619 8.95563 8.34887 9.00641 8.48155 9.00641C8.61423 9.00641 8.74691 8.95563 8.84799 8.85456C9.05071 8.65193 9.05071 8.32431 8.84799 8.12169L5.73294 5.00656Z" fill="white"/>
</g>
<defs>
<clipPath id="clip0">
<rect width="8" height="8" fill="white" transform="translate(1 1)"/>
</clipPath>
</defs>
</svg>
