<svg width="18" height="18" viewBox="0 0 18 18" fill="none" xmlns="https://www.w3.org/2000/svg">
<g clip-path="url(#clip0)">
<path d="M14.7262 7.77421C14.7225 7.77421 14.7206 7.77421 14.7168 7.77421C14.572 5.48446 12.668 3.67261 10.3424 3.67261C8.19568 3.67261 6.41015 5.21541 6.03199 7.25116C5.98305 7.24928 5.93227 7.2474 5.88336 7.2474C4.28411 7.2474 2.93509 8.30667 2.49483 9.76104C2.4271 9.75542 2.35748 9.75164 2.28787 9.75164C1.0254 9.75164 0 10.7752 0 12.0395C0 13.3039 1.02352 14.3274 2.28599 14.3274C2.3048 14.3274 14.7244 14.3274 14.7244 14.3274C16.5344 14.3274 18 12.8598 18 11.0517C18 9.24364 16.5362 7.77421 14.7262 7.77421Z" fill="white"/>
</g>
<defs>
<clipPath id="clip0">
<rect width="18" height="18" fill="white"/>
</clipPath>
</defs>
</svg>
