<svg width="15" height="15" viewBox="0 0 15 15" fill="none" xmlns="http://www.w3.org/2000/svg">
<g clip-path="url(#clip0)">
<path d="M14.4951 5.05498C14.285 4.87019 14.0263 4.75106 13.7471 4.71048L10.3279 4.21365L8.79878 1.11536C8.67388 0.862313 8.48064 0.653082 8.23997 0.510364C8.01669 0.377985 7.76082 0.307983 7.49997 0.307983C7.23913 0.307983 6.98324 0.37796 6.75998 0.510364C6.51931 0.653082 6.3261 0.862288 6.20119 1.11536L4.6721 4.21367L1.25293 4.71048C0.97365 4.75106 0.71497 4.87019 0.504867 5.05498C0.30996 5.2264 0.164352 5.44813 0.0837388 5.69623C0.00315033 5.9443 -0.00938013 6.20928 0.0475176 6.46253C0.108874 6.73551 0.248129 6.98395 0.450236 7.18092L2.92437 9.59263L2.34029 12.998C2.26792 13.4199 2.38409 13.849 2.65901 14.1751C2.93597 14.5036 3.34009 14.692 3.76772 14.692C4.00061 14.692 4.23371 14.6342 4.4418 14.5248L7.5 12.917L10.5582 14.5248C10.7663 14.6342 10.9994 14.692 11.2323 14.692C11.6599 14.692 12.064 14.5036 12.341 14.1751C12.6159 13.849 12.7321 13.42 12.6597 12.998L12.0757 9.59263L14.5498 7.18092C14.7519 6.98392 14.8911 6.73551 14.9525 6.46253C15.0094 6.20928 14.9969 5.9443 14.9163 5.69623C14.8356 5.44816 14.69 5.22642 14.4951 5.05498ZM13.8048 6.41672L11.0724 9.0802C10.9826 9.16776 10.9416 9.29391 10.9628 9.41755L11.6078 13.1784C11.6501 13.4248 11.4543 13.6248 11.2323 13.6248C11.1736 13.6248 11.1132 13.6109 11.0548 13.5802L7.67739 11.8046C7.62187 11.7754 7.56093 11.7608 7.50002 11.7608C7.43912 11.7608 7.37818 11.7754 7.32265 11.8046L3.94521 13.5802C3.88684 13.6109 3.82636 13.6248 3.76777 13.6248C3.54566 13.6248 3.34993 13.4248 3.39218 13.1784L4.03721 9.41755C4.05843 9.29391 4.01743 9.16776 3.9276 9.0802L1.19514 6.41672C0.968917 6.19623 1.09375 5.81204 1.40636 5.7666L5.18249 5.2179C5.30662 5.19987 5.41394 5.12189 5.46947 5.00939L7.15821 1.58766C7.22812 1.44601 7.36406 1.37519 7.5 1.37519C7.63597 1.37519 7.77188 1.44604 7.84176 1.58766L9.53051 5.00939C9.58603 5.12187 9.69333 5.19987 9.81749 5.2179L13.5936 5.7666C13.9062 5.81204 14.031 6.19623 13.8048 6.41672Z" fill="white"/>
<path d="M11.2322 14.7045C10.9973 14.7045 10.7623 14.6462 10.5524 14.5358L7.50002 12.931L4.44762 14.5358C4.23774 14.6462 4.00265 14.7045 3.76773 14.7045C3.33642 14.7045 2.92884 14.5145 2.64949 14.1831C2.3722 13.8542 2.25504 13.4215 2.32803 12.9959L2.91098 9.597L0.441534 7.18986C0.237709 6.99119 0.0972827 6.74063 0.0353778 6.46529C-0.0220182 6.20984 -0.00938809 5.94259 0.0718979 5.69241C0.153209 5.44222 0.300087 5.21857 0.496663 5.04568C0.708585 4.85929 0.969507 4.73915 1.25118 4.69822L4.66387 4.20233L6.19007 1.1099C6.31605 0.854656 6.51093 0.643656 6.7537 0.499693C6.97889 0.366167 7.23695 0.295593 7.50004 0.295593C7.76311 0.295593 8.02119 0.366167 8.24639 0.499693C8.48913 0.643631 8.68403 0.854656 8.81001 1.1099L10.3362 4.20233L13.7489 4.69822C14.0306 4.73912 14.2914 4.85927 14.5034 5.04568C14.7 5.21857 14.8469 5.44222 14.9282 5.69243C15.0095 5.94264 15.0221 6.20989 14.9647 6.46531C14.9028 6.74066 14.7623 6.99119 14.5585 7.18988L12.0891 9.597L12.672 12.9959C12.745 13.4215 12.6278 13.8542 12.3505 14.1831C12.0711 14.5144 11.6635 14.7045 11.2322 14.7045ZM7.49999 12.9029L7.5058 12.906L10.564 14.5138C10.7703 14.6222 11.0014 14.6796 11.2322 14.6796C11.6562 14.6796 12.0568 14.4927 12.3314 14.1671C12.604 13.8438 12.7191 13.4184 12.6474 13.0001L12.0622 9.58826L14.5411 7.172C14.7414 6.97669 14.8795 6.73042 14.9403 6.4598C14.9967 6.20875 14.9843 5.94603 14.9044 5.70008C14.8245 5.45413 14.6801 5.23429 14.4869 5.06434C14.2786 4.88114 14.0222 4.76304 13.7453 4.72283L10.3196 4.22507L10.3167 4.21919L8.78764 1.12086C8.66381 0.869951 8.47224 0.662564 8.23366 0.521067C8.0123 0.389808 7.75862 0.32043 7.50002 0.32043C7.24141 0.32043 6.98771 0.389808 6.76638 0.521067C6.5278 0.662539 6.33623 0.869951 6.21239 1.12086L4.68039 4.22502L4.67391 4.22597L1.25474 4.7228C0.977877 4.76304 0.721414 4.88112 0.513105 5.06432C0.319891 5.23426 0.175505 5.45408 0.0955887 5.70006C0.0156728 5.94601 0.00326692 6.2087 0.0596913 6.45978C0.120525 6.73042 0.258584 6.97669 0.458947 7.172L2.93776 9.58826L2.93666 9.59473L2.35259 13.0001C2.28085 13.4184 2.39601 13.8438 2.66857 14.1671C2.94317 14.4927 3.34379 14.6796 3.76776 14.6796C3.99864 14.6796 4.22972 14.6222 4.43603 14.5138L7.49999 12.9029ZM11.2322 13.6373C11.1688 13.6373 11.1072 13.6218 11.0491 13.5912L7.67161 11.8156C7.56626 11.7601 7.4339 11.7601 7.32845 11.8156L3.95101 13.5912C3.89289 13.6218 3.83123 13.6373 3.76778 13.6373C3.65177 13.6373 3.54159 13.5855 3.46546 13.4952C3.3903 13.4061 3.35993 13.2928 3.37991 13.1763L4.02495 9.4154C4.04547 9.2958 4.00581 9.17381 3.9189 9.08908L1.18646 6.42563C1.07839 6.3203 1.04023 6.1657 1.08686 6.02216C1.1335 5.87862 1.25524 5.77599 1.40461 5.75429L5.18074 5.20559C5.30083 5.18813 5.40462 5.11272 5.45832 5.00391L7.14707 1.58217C7.21386 1.44683 7.34908 1.36275 7.50002 1.36275C7.65093 1.36275 7.78618 1.44683 7.85294 1.58217L9.54168 5.00391C9.59539 5.11274 9.69917 5.18815 9.8193 5.20559L13.5954 5.75429C13.7448 5.77599 13.8665 5.87865 13.9132 6.02219C13.9598 6.1657 13.9216 6.3203 13.8135 6.42563L11.0811 9.08911C10.9942 9.17381 10.9546 9.2958 10.9751 9.41542L11.6201 13.1763C11.6401 13.2928 11.6097 13.4061 11.5345 13.4952C11.4584 13.5855 11.3483 13.6373 11.2322 13.6373ZM7.49999 11.7483C7.56357 11.7483 7.62692 11.7639 7.68317 11.7935L11.0606 13.5691C11.1151 13.5978 11.1729 13.6123 11.2322 13.6123C11.3409 13.6123 11.4442 13.5638 11.5155 13.4791C11.5859 13.3957 11.6143 13.2896 11.5956 13.1805L10.9505 9.41961C10.9286 9.29189 10.9709 9.16167 11.0637 9.07122L13.7962 6.40776C13.8974 6.30909 13.9331 6.16428 13.8895 6.02986C13.8458 5.89541 13.7317 5.79925 13.5918 5.7789L9.81569 5.2302C9.68749 5.21157 9.57669 5.13108 9.51934 5.01489L7.83059 1.59316C7.76801 1.46638 7.64134 1.38764 7.49999 1.38764C7.35862 1.38764 7.23195 1.46638 7.16939 1.59316L5.48065 5.01489C5.4233 5.13108 5.31252 5.21159 5.1843 5.2302L1.40817 5.77893C1.26827 5.79925 1.15423 5.89541 1.11056 6.02986C1.06689 6.1643 1.10263 6.30911 1.20385 6.40779L3.93626 9.07125C4.02906 9.1617 4.07138 9.29194 4.04946 9.41963L3.40443 13.1805C3.38572 13.2896 3.41414 13.3957 3.48447 13.4791C3.55584 13.5638 3.6591 13.6124 3.76773 13.6124C3.82712 13.6124 3.88487 13.5978 3.93937 13.5692L7.31682 11.7935C7.37312 11.7639 7.43644 11.7483 7.49999 11.7483Z" fill="white"/>
</g>
<defs>
<clipPath id="clip0">
<rect width="15" height="15" fill="white"/>
</clipPath>
</defs>
</svg>
