<svg width="485" height="485" viewBox="0 0 485 485" fill="none" xmlns="https://www.w3.org/2000/svg">
<path d="M343.611 22.543C320.997 22.543 299.384 27.727 279.373 37.952C265.751 44.911 253.238 54.157 242.5 65.127C231.762 54.157 219.249 44.911 205.627 37.952C185.615 27.727 164.002 22.543 141.388 22.543C63.427 22.543 0 85.97 0 163.932C0 219.151 29.163 277.798 86.678 338.246C134.7 388.717 193.494 430.789 234.359 457.196L242.5 462.457L250.641 457.196C291.506 430.79 350.3 388.717 398.322 338.246C455.837 277.798 485 219.151 485 163.932C485 85.97 421.573 22.543 343.611 22.543Z" fill="black"/>
</svg>
