<svg width="15" height="15" viewBox="0 0 15 15" fill="none" xmlns="http://www.w3.org/2000/svg">
<g clip-path="url(#clip0)">
<path d="M11.7188 5.625H11.25V3.75C11.25 1.68187 9.56813 0 7.5 0C5.43187 0 3.75 1.68187 3.75 3.75V5.625H3.28125C2.50625 5.625 1.875 6.25562 1.875 7.03125V13.5938C1.875 14.3694 2.50625 15 3.28125 15H11.7188C12.4938 15 13.125 14.3694 13.125 13.5938V7.03125C13.125 6.25562 12.4938 5.625 11.7188 5.625ZM5 3.75C5 2.37125 6.12125 1.25 7.5 1.25C8.87875 1.25 10 2.37125 10 3.75V5.625H5V3.75ZM8.125 10.4513V11.875C8.125 12.22 7.84562 12.5 7.5 12.5C7.15438 12.5 6.875 12.22 6.875 11.875V10.4513C6.50312 10.2344 6.25 9.83562 6.25 9.375C6.25 8.68562 6.81062 8.125 7.5 8.125C8.18938 8.125 8.75 8.68562 8.75 9.375C8.75 9.83562 8.49688 10.2344 8.125 10.4513Z" fill="white"/>
</g>
<defs>
<clipPath id="clip0">
<rect width="15" height="15" fill="white"/>
</clipPath>
</defs>
</svg>
