<svg height="512pt" viewBox="0 0 512 512" width="512pt" xmlns="http://www.w3.org/2000/svg"><path d="m256 0c-140.699219 0-256 115.300781-256 256s115.300781 256 256 256 256-115.300781 256-256-115.300781-256-256-256zm0 0" fill="#fe637c"/><path d="m512 256c0 140.699219-115.300781 256-256 256v-512c140.699219 0 256 115.300781 256 256zm0 0" fill="#ff1787"/><path d="m355.601562 109.300781c-3.601562-2.703125-8.101562-3.902343-12.601562-3l-87 17.398438-63 12.601562c-6.902344 1.5-12 7.5-12 14.699219v139.800781l-43.800781 17.398438c-18.898438 7.800781-31.199219 25.800781-31.199219 46.5 0 27.601562 22.5 49.800781 49.800781 49.800781s55.199219-20.699219 55.199219-52.199219v-129l120-24v61.5l-43.800781 17.398438c-18.898438 7.800781-31.199219 25.800781-31.199219 46.5 0 27.601562 22.5 49.800781 49.800781 49.800781s55.199219-20.699219 55.199219-52.199219c0-114.601562 0-87.300781 0-201.300781 0-4.5-2.101562-8.699219-5.398438-11.699219zm0 0" fill="#edf5ff"/><path d="m361 121v201.300781c0 31.5-27.898438 52.199219-55.199219 52.199219s-49.800781-22.199219-49.800781-49.800781c0-20.699219 12.300781-38.699219 31.199219-46.5l43.800781-17.398438v-61.5l-75 15v-90.601562l87-17.398438c4.5-.902343 9 .296875 12.601562 2.996094 3.296876 3.003906 5.398438 7.203125 5.398438 11.703125zm0 0" fill="#d7e9ff"/></svg>