<svg width="10" height="10" viewBox="0 0 10 10" fill="none" xmlns="https://www.w3.org/2000/svg">
<g clip-path="url(#clip0)">
<path d="M7.20824 4.06961L1.64878 0.245591C1.42034 0.0881164 1.18275 0.00500488 0.979349 0.00500488C0.532768 0.00500488 0.236694 0.379574 0.236694 0.982334V9.02285C0.236694 9.3173 0.322317 9.56331 0.449252 9.73456C0.578131 9.90815 0.779753 10 0.997575 10C1.2009 10 1.42909 9.91674 1.65744 9.75951L7.21188 5.93549C7.56895 5.68939 7.76474 5.35816 7.76466 5.00239C7.76466 4.64677 7.56579 4.31554 7.20824 4.06961Z" fill="white"/>
<path d="M9.24368 9.99745L9.23776 9.99738C9.23679 9.99738 9.23583 9.99745 9.23486 9.99745H9.24368Z" fill="white"/>
<path d="M9.22729 0L8.99748 0.000648041C8.69655 0.000648041 8.43604 0.245932 8.43604 0.547271V9.44503C8.43604 9.7467 8.69225 9.99433 8.99359 9.99433L9.23772 9.99741C9.53754 9.99581 9.76338 9.74605 9.76338 9.44552V0.546704C9.76338 0.245364 9.52846 0 9.22729 0Z" fill="white"/>
</g>
<defs>
<clipPath id="clip0">
<rect width="10" height="10" fill="white"/>
</clipPath>
</defs>
</svg>
