<svg width="512" height="512" viewBox="0 0 512 512" fill="none" xmlns="https://www.w3.org/2000/svg">
<path d="M165 0C74.019 0 0 74.019 0 165C0 255.981 74.019 330 165 330C255.981 330 330 255.981 330 165C330 74.019 255.981 0 165 0ZM270 180H150V60H180V150H270V180Z" fill="black"/>
<path d="M426 512L341.728 345H381V180H471V345H512L426 512Z" fill="black"/>
<path d="M381 120H471V150H381V120Z" fill="black"/>
<path d="M381 60H471V90H381V60Z" fill="black"/>
<path d="M381 0H471V30H381V0Z" fill="black"/>
</svg>
