<svg width="15" height="15" viewBox="0 0 15 15" fill="none" xmlns="http://www.w3.org/2000/svg">
<path d="M13.0833 0H1.91675C0.859834 0 0 0.859863 0 1.91678V13.0833C0 14.1401 0.859834 15 1.91675 15H13.0833C14.1402 15 15 14.1401 15 13.0832V1.91678C15 0.859863 14.1402 0 13.0833 0ZM14.1165 13.0833C14.1165 13.653 13.653 14.1165 13.0833 14.1165H1.91675C1.34701 14.1165 0.883506 13.653 0.883506 13.0833V11.4717L3.79137 8.99757C3.89748 8.90728 4.05229 8.90643 4.15939 8.99537L5.9809 10.5079C6.15653 10.6537 6.41435 10.6418 6.57574 10.4802L10.9037 6.14561C10.982 6.06724 11.0732 6.05962 11.1208 6.06205C11.1682 6.06448 11.2583 6.08142 11.3281 6.1674L14.1165 9.6007V13.0833ZM14.1165 8.19917L12.0139 5.61032C11.8054 5.35356 11.4964 5.19659 11.166 5.17963C10.8359 5.16293 10.5122 5.28721 10.2785 5.52129L6.23531 9.57073L4.72389 8.31568C4.28563 7.95176 3.65271 7.95554 3.21882 8.32471L0.883506 10.3117V1.91678C0.883506 1.34704 1.34701 0.883535 1.91675 0.883535H13.0833C13.653 0.883535 14.1165 1.34704 14.1165 1.91678V8.19917Z" fill="black"/>
<path d="M4.72194 1.84546C3.54728 1.84546 2.59167 2.80113 2.59167 3.97572C2.59167 5.15035 3.54731 6.10599 4.72194 6.10599C5.89657 6.10599 6.8522 5.15035 6.8522 3.97572C6.8522 2.8011 5.8966 1.84546 4.72194 1.84546ZM4.72194 5.22248C4.03446 5.22248 3.47518 4.66318 3.47518 3.97572C3.47518 3.28824 4.03446 2.72897 4.72194 2.72897C5.40942 2.72897 5.9687 3.28827 5.9687 3.97572C5.9687 4.66318 5.40942 5.22248 4.72194 5.22248Z" fill="black"/>
</svg>
