<svg width="15" height="15" viewBox="0 0 15 15" fill="none" xmlns="http://www.w3.org/2000/svg">
<path d="M7.49995 0C4.37995 0 1.8418 2.53816 1.8418 5.65776C1.8418 10.1495 6.89285 14.6617 7.10798 14.852C7.22048 14.9507 7.36022 15 7.49995 15C7.64522 15 7.79048 14.9467 7.90377 14.8405C8.11811 14.64 13.1581 9.87947 13.1581 5.65816C13.1581 2.53855 10.6192 0 7.49995 0ZM7.49995 8.35579C6.00982 8.35579 4.80232 7.1475 4.80232 5.65855C4.80232 4.16961 6.00982 2.96132 7.49995 2.96132C8.9893 2.96132 10.1968 4.16921 10.1968 5.65855C10.1968 7.1479 8.9893 8.35579 7.49995 8.35579Z" fill="white"/>
</svg>
