<svg width="15" height="15" viewBox="0 0 15 15" fill="none" xmlns="http://www.w3.org/2000/svg">
<path d="M0.777149 8.89489C0.556691 6.5219 1.57019 4.37243 3.25118 3.00681C3.90644 2.47404 4.88625 2.93026 4.88625 3.77229C4.88625 4.08155 4.73928 4.3663 4.50045 4.55921C3.30936 5.52984 2.59287 7.0608 2.7674 8.75098C2.99398 10.9525 4.75765 12.7345 6.95611 12.9795C9.82514 13.301 12.2624 11.0535 12.2624 8.24882C12.2624 6.76073 11.5735 5.42879 10.4988 4.55614C10.2599 4.36324 10.116 4.07848 10.116 3.77229C10.116 2.93945 11.0805 2.46791 11.7297 2.98844C13.2667 4.22852 14.2527 6.12385 14.2527 8.24882C14.2527 12.1344 10.9519 15.2668 7.0051 14.982C3.74109 14.7524 1.08028 12.1528 0.777149 8.89489ZM7.49807 0C6.94693 0 6.50295 0.447041 6.50295 0.995125V5.57883C6.50295 6.12997 6.94999 6.57395 7.49807 6.57395C8.04616 6.57395 8.4932 6.12691 8.4932 5.57883V0.995125C8.4932 0.447041 8.04922 0 7.49807 0Z" fill="#9C9C9C"/>
</svg>
