<svg width="15" height="15" viewBox="0 0 15 15" fill="none" xmlns="http://www.w3.org/2000/svg">
<path d="M0.777027 8.89489C0.556569 6.5219 1.57007 4.37243 3.25106 3.00681C3.90632 2.47404 4.88613 2.93026 4.88613 3.77229C4.88613 4.08155 4.73916 4.3663 4.50033 4.55921C3.30924 5.52984 2.59275 7.0608 2.76728 8.75098C2.99386 10.9525 4.75753 12.7345 6.95599 12.9795C9.82502 13.301 12.2623 11.0535 12.2623 8.24882C12.2623 6.76073 11.5734 5.42879 10.4987 4.55614C10.2598 4.36324 10.1159 4.07848 10.1159 3.77229C10.1159 2.93945 11.0804 2.46791 11.7296 2.98844C13.2666 4.22852 14.2526 6.12385 14.2526 8.24882C14.2526 12.1344 10.9518 15.2668 7.00498 14.982C3.74097 14.7524 1.08016 12.1528 0.777027 8.89489ZM7.49795 0C6.94681 0 6.50283 0.447041 6.50283 0.995125V5.57883C6.50283 6.12997 6.94987 6.57395 7.49795 6.57395C8.04604 6.57395 8.49308 6.12691 8.49308 5.57883V0.995125C8.49308 0.447041 8.0491 0 7.49795 0Z" fill="black"/>
</svg>
