<svg width="10" height="10" viewBox="0 0 10 10" fill="none" xmlns="http://www.w3.org/2000/svg">
<g clip-path="url(#clip0)">
<path d="M2.79176 5.93039L8.35122 9.75441C8.57966 9.91188 8.81725 9.995 9.02065 9.995C9.46723 9.995 9.76331 9.62043 9.76331 9.01767V0.977154C9.76331 0.6827 9.67768 0.436687 9.55075 0.265442C9.42187 0.0918471 9.22025 -1.29764e-05 9.00242 -1.29764e-05C8.7991 -1.29764e-05 8.57091 0.0832601 8.34256 0.240491L2.78812 4.06451C2.43105 4.31061 2.23526 4.64184 2.23534 4.99761C2.23534 5.35323 2.43421 5.68446 2.79176 5.93039Z" fill="white"/>
<path d="M0.756316 0.00254822L0.762244 0.00262451C0.763215 0.00262451 0.764166 0.00254822 0.765137 0.00254822H0.756316Z" fill="white"/>
<path d="M0.772711 10L1.00252 9.99935C1.30345 9.99935 1.56396 9.75407 1.56396 9.45273V0.554966C1.56396 0.253303 1.30775 0.00567055 1.00641 0.00567055L0.762282 0.00259219C0.462463 0.00419204 0.236623 0.253951 0.236623 0.55448V9.4533C0.236623 9.75464 0.471536 10 0.772711 10Z" fill="white"/>
</g>
<defs>
<clipPath id="clip0">
<rect width="10" height="10" fill="white" transform="translate(10 10) rotate(-180)"/>
</clipPath>
</defs>
</svg>
