<svg width="15" height="15" viewBox="0 0 15 15" fill="none" xmlns="https://www.w3.org/2000/svg">
<path d="M6.18265 12.3538C2.77668 12.3538 0.0057373 9.58288 0.0057373 6.17691C0.0057373 2.77094 2.77668 0 6.18265 0C9.58862 0 12.3596 2.77094 12.3596 6.17691C12.3596 9.58288 9.58862 12.3538 6.18265 12.3538V12.3538ZM6.18265 1.17098C3.42236 1.17098 1.17672 3.41662 1.17672 6.17691C1.17672 8.9372 3.42236 11.1828 6.18265 11.1828C8.94294 11.1828 11.1886 8.9372 11.1886 6.17691C11.1886 3.41662 8.94294 1.17098 6.18265 1.17098V1.17098ZM14.8228 14.8285C15.0514 14.5998 15.0514 14.2291 14.8228 14.0005L12.2027 11.3804C11.9741 11.1518 11.6033 11.1518 11.3747 11.3804C11.1461 11.6091 11.1461 11.9798 11.3747 12.2084L13.9948 14.8285C14.1091 14.9428 14.2589 15 14.4088 15C14.5587 15 14.7085 14.9428 14.8228 14.8285V14.8285Z" fill="white"/>
</svg>
