<svg width="15" height="15" viewBox="0 0 15 15" fill="none" xmlns="http://www.w3.org/2000/svg">
<g clip-path="url(#clip0)">
<path d="M14.1769 5.87125L13.0019 5.72187C12.905 5.42375 12.7856 5.13625 12.6462 4.86312L13.3719 3.92875C13.6656 3.55062 13.6313 3.01688 13.2956 2.69187L12.3112 1.7075C11.9831 1.36875 11.4494 1.335 11.0706 1.62812L10.1375 2.35375C9.86437 2.21438 9.57687 2.095 9.27812 1.99813L9.12875 0.825C9.0725 0.354375 8.67313 0 8.2 0H6.8C6.32688 0 5.9275 0.354375 5.87125 0.823125L5.72187 1.99813C5.42312 2.095 5.13563 2.21375 4.8625 2.35375L3.92875 1.62812C3.55125 1.335 3.0175 1.36875 2.69187 1.70438L1.7075 2.68813C1.36875 3.01688 1.33438 3.55063 1.62812 3.92938L2.35375 4.86312C2.21375 5.13625 2.095 5.42375 1.99813 5.72187L0.825 5.87125C0.354375 5.9275 0 6.32688 0 6.8V8.2C0 8.67313 0.354375 9.0725 0.823125 9.12875L1.99813 9.27812C2.095 9.57625 2.21438 9.86375 2.35375 10.1369L1.62812 11.0713C1.33438 11.4494 1.36875 11.9831 1.70438 12.3081L2.68875 13.2925C3.0175 13.6306 3.55063 13.6644 3.92938 13.3712L4.86312 12.6456C5.13625 12.7856 5.42375 12.905 5.72187 13.0013L5.87125 14.1737C5.9275 14.6456 6.32688 15 6.8 15H8.2C8.67313 15 9.0725 14.6456 9.12875 14.1769L9.27812 13.0019C9.57625 12.905 9.86375 12.7856 10.1369 12.6462L11.0713 13.3719C11.4494 13.6656 11.9831 13.6313 12.3081 13.2956L13.2925 12.3112C13.6312 11.9825 13.6656 11.4494 13.3719 11.0706L12.6462 10.1369C12.7862 9.86375 12.9056 9.57625 13.0019 9.27812L14.1744 9.12875C14.645 9.0725 14.9994 8.67313 14.9994 8.2V6.8C15 6.32688 14.6456 5.9275 14.1769 5.87125ZM7.5 10.625C5.77688 10.625 4.375 9.22313 4.375 7.5C4.375 5.77688 5.77688 4.375 7.5 4.375C9.22313 4.375 10.625 5.77688 10.625 7.5C10.625 9.22313 9.22313 10.625 7.5 10.625Z" fill="#9C9C9C"/>
</g>
<defs>
<clipPath id="clip0">
<rect width="15" height="15" fill="white"/>
</clipPath>
</defs>
</svg>
