<svg width="15" height="15" viewBox="0 0 15 15" fill="none" xmlns="https://www.w3.org/2000/svg">
<g clip-path="url(#clip0)">
<path d="M5.45456 0H1.36365C0.611559 0 0 0.611559 0 1.36365V5.45456C0 6.20662 0.611559 6.81821 1.36365 6.81821H5.45456C6.20662 6.81821 6.81821 6.20665 6.81821 5.45456V1.36365C6.81818 0.611559 6.20662 0 5.45456 0Z" fill="black"/>
<path d="M13.6364 0H9.54554C8.79345 0 8.18188 0.611559 8.18188 1.36365V5.45456C8.18188 6.20662 8.79345 6.81821 9.54554 6.81821H13.6364C14.3885 6.81821 15.0001 6.20665 15.0001 5.45456V1.36365C15.0001 0.611559 14.3885 0 13.6364 0Z" fill="black"/>
<path d="M5.45456 8.18188H1.36365C0.611559 8.18188 0 8.79345 0 9.54554V13.6365C0 14.3885 0.611559 15.0001 1.36365 15.0001H5.45456C6.20662 15.0001 6.81821 14.3886 6.81821 13.6365V9.54554C6.81818 8.79345 6.20662 8.18188 5.45456 8.18188Z" fill="black"/>
<path d="M13.2954 10.9091H12.2727V9.88633C12.2727 9.69789 12.1202 9.54541 11.9318 9.54541H11.25C11.0615 9.54541 10.9091 9.69789 10.9091 9.88633V10.9091H9.88633C9.69789 10.9091 9.54541 11.0615 9.54541 11.25V11.9318C9.54541 12.1202 9.69789 12.2727 9.88633 12.2727H10.9091V13.2954C10.9091 13.4839 11.0615 13.6364 11.25 13.6364H11.9318C12.1202 13.6364 12.2727 13.4839 12.2727 13.2954V12.2727H13.2954C13.4839 12.2727 13.6364 12.1202 13.6364 11.9318V11.25C13.6364 11.0615 13.4839 10.9091 13.2954 10.9091Z" fill="black"/>
</g>
<defs>
<clipPath id="clip0">
<rect width="15" height="15" fill="white"/>
</clipPath>
</defs>
</svg>
