<svg width="512" height="512" viewBox="0 0 512 512" fill="none" xmlns="http://www.w3.org/2000/svg">
<path d="M426.667 106.667C379.539 106.667 341.334 144.872 341.334 192H384C384 168.436 403.103 149.333 426.667 149.333C450.231 149.333 469.334 168.435 469.334 192C469.334 215.565 450.231 234.667 426.667 234.667H128V277.334H426.667C473.795 277.333 512 239.128 512 192C512 144.872 473.795 106.667 426.667 106.667Z" fill="#6986AA"/>
<path d="M339.778 320H85.333V362.667H339.778C363.342 362.667 382.445 381.77 382.445 405.334V406.889C382.445 429.594 364.039 448.001 341.333 448.001V490.668C387.603 490.668 425.111 453.159 425.111 406.89V405.335C425.112 358.205 386.907 320 339.778 320Z" fill="#6986AA"/>
<path d="M85.333 234.667H0V277.334H85.333V234.667Z" fill="#6986AA"/>
<path d="M213.077 21.333C166.666 21.333 129.042 58.957 129.042 105.368V110.76H171.709V105.368C171.709 82.521 190.23 64 213.077 64C235.924 64 254.445 82.521 254.445 105.368V106.667C254.445 130.231 235.342 149.334 211.778 149.334H42.667V192H211.779C258.907 192 297.112 153.795 297.112 106.667V105.368C297.112 58.957 259.488 21.333 213.077 21.333Z" fill="#6986AA"/>
</svg>

