<svg width="512" height="512" viewBox="0 0 512 512" fill="none" xmlns="http://www.w3.org/2000/svg">
<path d="M512 256C512 114.845 397.155 0 256 0C114.845 0 0 114.845 0 256C0 397.155 114.845 512 256 512C397.155 512 512 397.155 512 256ZM25.5791 256C25.5791 128.94 128.94 25.5791 256 25.5791C383.06 25.5791 486.421 128.94 486.421 256C486.421 383.06 383.06 486.421 256 486.421C128.94 486.421 25.5791 383.06 25.5791 256Z" fill="#6986AA"/>
<path d="M265.083 376.274L337.018 304.339C342.029 299.328 342.029 291.289 337.018 286.277C332.006 281.266 323.967 281.266 318.956 286.277L268.842 336.392V144.809C268.842 137.71 263.099 131.967 256 131.967C248.9 131.967 243.158 137.71 243.158 144.809V336.287L193.044 286.173C188.033 281.162 179.993 281.162 174.982 286.173C169.971 291.184 169.971 299.224 174.982 304.235L246.917 376.17C249.422 378.675 252.659 379.928 256 379.928C259.341 379.928 262.577 378.78 265.083 376.274Z" fill="#6986AA"/>
</svg>
