<svg height="512pt" viewBox="0 0 512 512" width="512pt" xmlns="http://www.w3.org/2000/svg"><path d="m512 256c0 141.386719-114.613281 256-256 256s-256-114.613281-256-256 114.613281-256 256-256 256 114.613281 256 256zm0 0" fill="#ffd460"/><path d="m512 256c0-9.121094-.484375-18.128906-1.417969-27.003906l-134.90625-134.910156-239.351562 323.828124 92.671875 92.667969c8.875.933594 17.882812 1.417969 27.003906 1.417969 141.386719 0 256-114.613281 256-256zm0 0" fill="#ffbe11"/><path d="m136.324219 94.085938v323.828124l119.675781-119.675781 21.117188-102.074219-21.117188-102.078124zm0 0" fill="#ff7855"/><path d="m256 94.085938v204.152343l119.675781 119.675781v-323.828124zm0 0" fill="#ff562b"/></svg>