<svg id="Layer_1" enable-background="new 0 0 510 510" height="512" viewBox="0 0 510 510" width="512" xmlns="http://www.w3.org/2000/svg"><g><g><g><path d="m510 255c0 65.118-24.408 124.534-64.574 169.6-46.703 52.401-114.711 71.856-190.426 71.856-140.833 0-243.41-98.531-243.41-239.364 0-79.218 24.533-152.092 81.206-198.862 44.079-36.378 100.59-58.23 162.204-58.23 140.833 0 255 114.167 255 255z" fill="#ff5551"/></g></g><g><path d="m380.584 345.207c18.301-37.868 76.566-158.43 88.849-183.845 1.869-3.867.249-8.516-3.618-10.385l-1.656-.8 4.376-9.055c2.192-4.536 1.197-9.776-2.086-13.219-.035-.037-.07-.073-.106-.109-.258-.264-.53-.516-.816-.757-.068-.058-.134-.116-.204-.172-.267-.215-.547-.417-.836-.61-.087-.058-.169-.121-.258-.177-.372-.235-.757-.455-1.163-.651-1.826-.883-3.768-1.25-5.661-1.16-4.164.198-8.093 2.61-10.034 6.628l-3.797 7.856-.579 1.199-1.656-.8c-3.867-1.869-8.517-.249-10.385 3.618l-3.922 8.116-.399-.193c-7.25-3.505-15.969-.469-19.473 6.782-7.251 15.004-29.804 9.84-29.804-6.824v-68.927c0-14.01-11.358-25.368-25.368-25.368h-45.766c-1.31 0-209.223 0-211.081 0h-.017c-14.849 11.963-28.662 25.981-40.127 40.456v.029c-5.368 6.777-10.388 13.839-15.056 21.149h-.037c-2.222 3.482-5.733 9.42-6.865 11.417.006.001.013.001.019.002-21.03 37.073-33.058 79.923-33.058 125.593 0 44.814 11.575 86.918 31.875 123.512.001.001.001.002.001.003 16.865 30.401 41.421 56.743 48.979 62.79l.395.316c45.54 42.417 106.608 68.379 173.75 68.379 75.716 0 143.717-33.005 190.415-85.409 15.084-16.927-2.542-42.63-23.904-35.035-.394.14-.789.279-1.183.417-21.011 7.353-42.971-8.404-42.971-30.664 0-4.887 1.101-9.703 3.227-14.102zm-291.144-149.985c-1.666 0-3.119-.327-4.375-.882-.233-1.302-.437-2.614-.65-3.924h5.255c3.178 0 5.754-2.576 5.754-5.754s-2.576-5.754-5.754-5.754h-6.854c-.087-.754-.178-1.508-.259-2.265 1.666-1.544 3.951-2.541 6.883-2.541 13.611.001 13.582 21.12 0 21.12zm-7.442-65.727h7.671c3.178 0 5.754-2.576 5.754-5.754s-2.576-5.754-5.754-5.754h-6.679c.067-.547.143-1.091.214-1.637 5.377-6.016 17.71-3.541 17.705 7.391-.005 11.508-14.182 13.972-18.911 5.754z" fill="#e20a62"/></g><g><g><path d="m329.568 56.354h-45.766v385.267h45.766c14.01 0 25.368-11.358 25.368-25.368v-334.531c0-14.01-11.358-25.368-25.368-25.368z" fill="#2896ff"/></g><g><path d="m316.45 70.436h-32.648v357.762h32.648c10.845 0 19.637-8.792 19.637-19.637v-318.488c0-10.845-8.791-19.637-19.637-19.637z" fill="#fff"/></g><g><path d="m295.402 56.354h-262.826v385.267h262.826c14.01 0 25.368-11.357 25.368-25.368v-334.531c0-14.011-11.358-25.368-25.368-25.368zm-228.383 327.978c-13.612 0-13.589-21.12 0-21.12 13.612.001 13.589 21.12 0 21.12zm0-59.652c-13.612 0-13.589-21.119 0-21.119 13.612 0 13.589 21.119 0 21.119zm0-62.19c-13.612 0-13.589-21.119 0-21.119 13.612-.001 13.589 21.119 0 21.119zm0-67.268c-13.612 0-13.589-21.119 0-21.119 13.612 0 13.589 21.119 0 21.119zm1.269-60.92c-13.612 0-13.589-21.12 0-21.12 13.612 0 13.589 21.12 0 21.12z" fill="#6ee1ff"/></g><g><path d="m320.77 403.518v-321.796c0-14.01-11.358-25.368-25.368-25.368h-179.399v347.164z" fill="#6ee1ff"/></g><g><path d="m122.546 363.13v-92.945c0-16.877 13.682-30.559 30.559-30.559h96.362c7.04 0 12.746-5.707 12.746-12.746v-75.224c0-7.04-5.707-12.746-12.746-12.746h-126.921v-82.556h-89.97v385.267h262.826c14.01 0 25.368-11.358 25.368-25.368v-22.565h-167.666c-16.877 0-30.558-13.681-30.558-30.558zm-55.527 21.202c-13.612 0-13.589-21.119 0-21.119 13.612 0 13.589 21.119 0 21.119zm0-59.652c-13.612 0-13.589-21.119 0-21.119 13.612 0 13.589 21.119 0 21.119zm0-62.19c-13.612 0-13.589-21.119 0-21.119 13.612-.001 13.589 21.119 0 21.119zm0-67.268c-13.612 0-13.589-21.119 0-21.119 13.612 0 13.589 21.119 0 21.119zm1.269-60.92c-13.612 0-13.589-21.119 0-21.119 13.612-.001 13.589 21.119 0 21.119z" fill="#05cdff"/></g><g><path d="m249.466 227.622h-145.586c-7.04 0-12.746-5.707-12.746-12.746v-75.224c0-7.04 5.707-12.746 12.746-12.746h145.587c7.04 0 12.746 5.707 12.746 12.746v75.224c0 7.039-5.707 12.746-12.747 12.746z" fill="#fff"/></g><g><g><path d="m122.546 156.256h108.254v12.004h-108.254z" fill="#6ee1ff"/></g></g><g><g><path d="m122.546 186.267h108.254v12.004h-108.254z" fill="#6ee1ff"/></g></g><g><g><path d="m67.249 129.495h-55.659c-3.178 0-5.754-2.576-5.754-5.754s2.576-5.754 5.754-5.754h55.659c3.178 0 5.754 2.576 5.754 5.754 0 3.179-2.576 5.754-5.754 5.754z" fill="#ffc305"/></g></g><g><g><path d="m67.249 190.417h-55.659c-3.178 0-5.754-2.576-5.754-5.754s2.576-5.754 5.754-5.754h55.659c3.178 0 5.754 2.576 5.754 5.754s-2.576 5.754-5.754 5.754z" fill="#ffc305"/></g></g><g><g><path d="m67.249 257.092h-55.659c-3.178 0-5.754-2.576-5.754-5.754s2.576-5.754 5.754-5.754h55.659c3.178 0 5.754 2.576 5.754 5.754s-2.576 5.754-5.754 5.754z" fill="#ffc305"/></g></g><g><g><path d="m67.249 318.013h-55.659c-3.178 0-5.754-2.576-5.754-5.754s2.576-5.754 5.754-5.754h55.659c3.178 0 5.754 2.576 5.754 5.754s-2.576 5.754-5.754 5.754z" fill="#ffc305"/></g></g><g><g><path d="m67.249 378.934h-55.659c-3.178 0-5.754-2.576-5.754-5.754s2.576-5.754 5.754-5.754h55.659c3.178 0 5.754 2.576 5.754 5.754s-2.576 5.754-5.754 5.754z" fill="#ffc305"/></g></g><g><g><path d="m24.594 117.988h-12.758c-3.005 0-5.689 2.197-5.974 5.189-.327 3.432 2.363 6.319 5.727 6.319h13.005c3.178 0 5.754-2.576 5.754-5.754 0-3.178-2.576-5.754-5.754-5.754z" fill="#f8e000"/></g></g><g><g><path d="m24.594 178.909h-12.758c-3.005 0-5.689 2.197-5.974 5.189-.327 3.432 2.363 6.319 5.727 6.319h13.005c3.178 0 5.754-2.576 5.754-5.754 0-3.178-2.576-5.754-5.754-5.754z" fill="#f8e000"/></g></g><g><g><path d="m24.594 245.584h-12.758c-3.005 0-5.689 2.197-5.974 5.189-.327 3.432 2.363 6.318 5.727 6.318h13.005c3.178 0 5.754-2.576 5.754-5.754 0-3.177-2.576-5.753-5.754-5.753z" fill="#f8e000"/></g></g><g><g><path d="m24.594 306.505h-12.758c-3.005 0-5.689 2.197-5.974 5.189-.327 3.432 2.363 6.319 5.727 6.319h13.005c3.178 0 5.754-2.576 5.754-5.754 0-3.177-2.576-5.754-5.754-5.754z" fill="#f8e000"/></g></g><g><g><path d="m24.594 367.427h-12.758c-3.005 0-5.689 2.197-5.974 5.189-.327 3.432 2.363 6.319 5.727 6.319h13.005c3.178 0 5.754-2.576 5.754-5.754 0-3.178-2.576-5.754-5.754-5.754z" fill="#f8e000"/></g></g></g><g><g><path d="m444.1 127.977c-8.675 0-15.708 7.033-15.708 15.708v8.254l10.128 4.895 7.593-15.712c2.177-4.503 1.213-9.701-2.013-13.145z" fill="#6ee1ff"/></g><g><path d="m428.124 151.122 7.593-15.712c1.801-3.727 5.314-6.065 9.138-6.542-1.083-1.416-2.495-2.613-4.209-3.441-5.844-2.824-12.871-.376-15.695 5.468l-7.593 15.712 21.163 10.228.27-.558z" fill="#05cdff"/></g><g><path d="m302.332 293.685h89.773v37.047h-89.773z" fill="#f8e000" transform="matrix(.435 -.9 .9 .435 -84.97 488.982)"/></g><g><path d="m315.735 334.785-8.368 17.315 38.478 18.596 42.705-88.366-13.64-6.592-22.334 46.213c-6.63 13.718-23.124 19.464-36.841 12.834z" fill="#ffc305"/></g><g><path d="m305.251 406.696c-.39 0-.785-.086-1.159-.267-1.327-.642-1.884-2.237-1.242-3.565l8.368-17.315c.642-1.327 2.236-1.882 3.564-1.242 1.327.642 1.884 2.237 1.242 3.565l-8.368 17.315c-.461.953-1.413 1.509-2.405 1.509z" fill="#fff"/></g><g><path d="m337.899 209.014h99.395v35.318h-99.395z" fill="#fff" transform="matrix(-.435 .9 -.9 -.435 760.34 -23.674)"/></g><g><path d="m447.011 161.362-15.212 31.477-38.478-18.596 15.212-31.477c1.869-3.867 6.518-5.486 10.385-3.618l24.475 11.828c3.867 1.87 5.487 6.519 3.618 10.386z" fill="#2896ff"/></g><g><path d="m353.799 226.939h99.395v14.835h-99.395z" fill="#6ee1ff" transform="matrix(-.435 .9 -.9 -.435 790.077 -26.962)"/></g><g><path d="m313.621 383.687 2.297 10.407 29.926-23.398-29.675-14.342z" fill="#1a396b"/></g><g><path d="m307.626 390.087 8.292 4.007.251-37.74-8.802-4.254z" fill="#2896ff"/></g><g><g><path d="m443.089 169.478-4.397 9.098-37.933-18.332c-2.747-1.327-6.05-.177-7.377 2.57l-34.353 71.084c-2.428 5.025-8.471 7.13-13.496 4.701l39.206-81.125c3.504-7.251 12.223-10.288 19.474-6.784z" fill="#1a396b"/></g></g></g></g></svg>