<svg width="456" height="456" viewBox="0 0 456 456" fill="none" xmlns="https://www.w3.org/2000/svg">
<g clip-path="url(#clip0)">
<path d="M455.111 164.089C455.111 302.045 291.555 393.067 241.778 417.245C233.245 421.512 221.867 421.512 213.334 417.245C163.556 393.067 0 304.889 0 164.089C0 92.978 52.622 34.667 116.622 34.667C167.822 34.667 210.489 70.223 226.133 120C241.777 70.222 285.866 34.667 335.644 34.667C402.489 34.667 455.111 92.978 455.111 164.089Z" fill="white"/>
<path d="M455.111 164.089C455.111 302.045 291.555 393.067 241.778 417.245C233.245 421.512 221.867 421.512 211.911 417.245C189.155 407.289 146.489 383.112 103.822 348.978H105.244C240.355 348.978 348.444 239.467 348.444 105.778C348.444 81.6 344.177 57.422 337.066 34.667C403.911 36.089 455.111 92.978 455.111 164.089Z" fill="#D6D6D6"/>
<g opacity="0.2">
<path opacity="0.2" d="M109.511 142.756C86.755 148.445 65.422 139.912 61.155 124.267C58.311 107.2 72.533 90.1331 95.289 84.4441C118.045 78.7551 139.378 87.2881 143.645 102.933C147.911 120 132.267 137.067 109.511 142.756Z" fill="white"/>
</g>
</g>
<defs>
<clipPath id="clip0">
<rect width="455.111" height="455.111" fill="white"/>
</clipPath>
</defs>
</svg>
