<svg id="Layer_1" enable-background="new 0 0 497 497" height="512" viewBox="0 0 497 497" width="512" xmlns="http://www.w3.org/2000/svg"><g><path d="m316 31h-30l30 45v45h30v-60c0-16.569-13.432-30-30-30z" fill="#233952"/><path d="m286 31h-105c-16.569 0-30 13.431-30 30v60h30v-45h135v-15c0-16.569-13.432-30-30-30z" fill="#3d5168"/><path d="m422 316v150h30c16.569 0 30-13.431 30-30v-120z" fill="#233952"/><path d="m392 316v150h30c16.569 0 30-13.431 30-30v-120z" fill="#3d5168"/><path d="m362 316v150h30c16.569 0 30-13.431 30-30v-120z" fill="#57697d"/><path d="m15 316v120c0 16.569 13.431 30 30 30h60v-150z" fill="#3d5168"/><path d="m392 436v-120h-317v120c0 16.569 13.432 30 30 30h257c16.568 0 30-13.431 30-30z" fill="#728192"/><path d="m467 106h-30v240h30c16.569 0 30-13.431 30-30v-180c0-16.569-13.432-30-30-30z" fill="#3d5168"/><path d="m467 316v-180c0-16.569-13.431-30-30-30h-407c-16.568 0-30 13.431-30 30v180c0 16.569 13.432 30 30 30h173.5l45-15 45 15h143.5c16.568 0 30-13.431 30-30z" fill="#57697d"/><path d="m263.5 241-45 90h75v-90z" fill="#233952"/><path d="m203.5 241h60v90h-60z" fill="#3d5168"/><path d="m248.5 331v105c24.853 0 45-20.147 45-45v-60z" fill="#ffb739"/><path d="m263.5 391v-60h-60v60c0 24.853 20.147 45 45 45 8.284 0 15-20.147 15-45z" fill="#ffd17e"/><path d="m263.5 316v30h30c8.284 0 15-6.716 15-15s-6.716-15-15-15z" fill="#ff9441"/><path d="m188.5 331c0 8.284 6.716 15 15 15h60c8.284 0 15-6.716 15-15s-6.716-15-15-15h-60c-8.284 0-15 6.716-15 15z" fill="#ffb739"/><circle cx="248.5" cy="391" fill="#ff9441" r="15"/></g></svg>