<svg id="Layer_1" enable-background="new 0 0 512 512" height="512" viewBox="0 0 512 512" width="512" xmlns="http://www.w3.org/2000/svg"><g clip-rule="evenodd" fill-rule="evenodd"><path d="m511.47 308.161c-2.707 38.053-15.181 73.455-34.952 103.614-38.894 59.465-106.033 98.725-182.322 98.725-47.338 0-91.146-15.198-126.864-40.969-55.076-39.732-90.97-104.616-90.97-177.658l131.453-182.989 99.502-34.077c25.714 1.532 50.192 7.51 72.729 17.2 7.061 3.034 13.946 6.45 20.624 10.191 66.433 37.346 111.33 108.533 111.33 190.235 0 5.301-.177 10.544-.53 15.728z" fill="#a6e7f0"/><path d="m400.671 102.198c66.432 37.346 111.329 108.533 111.329 190.235 0 5.301-.177 10.544-.53 15.728-4.972 33.223-62.373 30.042-65.403 1.09-2.795-26.655-27.362-27.332-38.659-28.451-27.832-2.827-40.454-22.737-4.913-69.449 29.598-38.907-78.937-78.403-22.448-119.342 7.061 3.032 13.945 6.449 20.624 10.189z" fill="#80d261"/><path d="m313.702 150.383 13.651 12.134c6.943 6.185 7.591 16.935 1.412 23.916l-33.599 37.847-25.655-18.82 1.618-32.604 18.712-21.059c6.179-6.981 16.918-7.599 23.861-1.414z" fill="#838383"/><path d="m271.13 172.855 24.037 51.424 10.503 22.531c7.797 16.67 2.177 33.547-4.06 40.556l-12.121 13.637c-9.15 10.338-16.741 7.245-24.096-3.917l-70.758-104.733 9.944-47.213 50.192-7.334z" fill="#acacac"/><path d="m141.971 240.125 26.038 52.426c6.384 12.871 1.677 26.213-3.177 31.691l-6.649 7.481c-7.149 8.07-13.092 5.684-18.829-3.063l-41.514-48.509 9.827-28.363z" fill="#acacac"/><path d="m41.645 180.16 54.223 19.085-.235 37.169-33.864 10.839-52.575-34.372c-9.326-4.683-12.416-10.308-5.237-18.349l6.649-7.51c4.855-5.449 17.506-11.634 31.039-6.862z" fill="#acacac"/><path d="m355.509 406.149c19.388-32.251 79.113-39.614 121.009 5.625-38.894 59.466-106.033 98.726-182.322 98.726-47.338 0-91.146-15.198-126.864-40.969-1.971-59.759 46.25-75.251 85.115-43.119 16.741 13.814 78.613 20.5 103.062-20.263z" fill="#80d261"/><path d="m139.941 1.5c4.001 0 8.003 1.384 11.18 4.241l13.651 12.134c6.973 6.185 7.591 16.965 1.412 23.916l-18.682 21.059h-39.836l-14.004-17.848 33.599-37.847c3.325-3.74 7.973-5.655 12.622-5.655z" fill="#838383"/><path d="m93.662 45.002 53.841 17.848 36.659 12.134-6.473 47.419-40.542 18.791-112.242-58.051c-11.945-6.009-15.888-13.166-6.708-23.504l12.121-13.637c6.208-7.01 22.301-14.579 39.748-8.806z" fill="#acacac"/><path d="m248.652 12.28c18.035-5.36 41.896-8.924 53.252 1.296 11.474 10.073 10.709 34.194 7.502 52.75-.471 2.769-1.147 5.596-2.089 8.482-4.178 13.136-13.151 27.185-28.333 41.057l-24.214 21.942-60.137 54.546-96.884 87.71-4.119 3.888c-5.884 4.889-11.827 7.363-17.27 7.923-18.359 1.885-31.157-17.996-18.241-39.496l3.648-5.125 75.377-106.059 47.015-66.209 18.947-26.625c14.566-20.382 30.512-31.604 45.546-36.08z" fill="#ececec"/><path d="m234.648 117.867-60.137 54.546-96.884 87.71-4.119 3.888c-5.914 4.889-11.827 7.363-17.27 7.923-1.118.118-2.207.147-3.266.118 1.089 12.4 10.974 21.088 23.39 19.822 5.443-.56 11.386-3.034 17.27-7.923l4.119-3.888 96.884-87.71 60.137-54.546 24.214-21.942c15.181-13.872 24.155-27.921 28.333-41.057.941-2.886 1.618-5.714 2.089-8.482 3.207-18.555 3.972-42.677-7.502-52.75-3.236-2.916-7.473-4.712-12.327-5.655 2.854 11.457 1.824 26.183-.294 38.495-.471 2.769-1.147 5.567-2.089 8.453-4.178 13.136-13.151 27.185-28.332 41.057z" fill="#cecece"/><path d="m280.133 283.744-70.787-104.733-14.711 13.342 70.758 104.733c7.355 11.163 14.946 14.255 24.096 3.917l6.62-7.452c-5.738 1.768-10.916-2.09-15.976-9.807z" fill="#838383"/><path d="m316.703 175.683-28.98 32.663 7.444 15.934 33.599-37.847c6.178-6.98 5.531-17.73-1.412-23.916l-12.004-10.691v.029c6.884 6.186 7.502 16.906 1.353 23.828z" fill="#595959"/><path d="m132.051 57.75 15.452 5.1 18.682-21.059c6.178-6.951 5.561-17.73-1.412-23.916l-9.356-8.335c6.914 6.215 5.849 16.43-.447 23.293z" fill="#595959"/><path d="m147.914 125.996-112.212-58.051c-8.356-4.182-12.798-8.954-11.562-14.991l-5.943 6.686c-9.179 10.338-5.237 17.495 6.708 23.503l112.241 58.051z" fill="#838383"/><path d="m151.974 317.203-41.513-48.508-12.621 11.456 41.513 48.508c5.737 8.747 11.68 11.133 18.829 3.063l6.002-6.745c-4.354 1.15-8.326-1.884-12.21-7.774z" fill="#838383"/><path d="m71.684 233.292-52.546-34.371c-6.296-3.181-9.738-6.745-9.121-11.221l-6.061 6.833c-7.179 8.041-4.09 13.666 5.237 18.349l52.575 34.371z" fill="#838383"/><path d="m512 292.433c0-81.702-44.897-152.889-111.329-190.234-3.56-2.003-7.208-3.917-10.915-5.743 35.629 47.183 57.695 112.627 57.695 184.962 0 9.867-.412 19.586-1.206 29.129 4.56 27.744 60.343 30.336 65.227-2.386.351-5.184.528-10.427.528-15.728z" fill="#4fc122"/><path d="m511.47 308.161c-4.884 32.722-60.666 30.13-65.227 2.386-2.148 25.594-7.032 50.04-14.299 72.807 15.417 4.536 30.951 13.695 44.573 28.422 19.772-30.161 32.247-65.563 34.953-103.615z" fill="#6bd9e7"/><path d="m431.945 383.353c-15.505 48.715-41.807 89.801-74.847 117.928 49.545-14.962 91.676-47.095 119.42-89.506-13.622-14.726-29.156-23.886-44.573-28.422z" fill="#4fc122"/></g><path d="m276.181 77.06c-3.921 0-7.295-2.953-7.731-6.942-.952-8.696-11.304-18.196-19.117-17.562-4.29.369-8.051-2.823-8.41-7.111-.359-4.287 2.824-8.052 7.11-8.411 16.24-1.377 34.017 14.187 35.9 31.389.468 4.275-2.618 8.121-6.893 8.589-.29.033-.576.048-.859.048z" fill="#838383"/></svg>